<svg width="183" height="70" viewBox="0 0 183 70" fill="none" xmlns="http://www.w3.org/2000/svg">
<path fill-rule="evenodd" clip-rule="evenodd" d="M22.6712 15.0077L22.6714 0H16.318L16.318 15.02H14.0642L10.9461 15.0199V15.0293C4.85971 15.2721 0 20.283 0 26.429C0 32.649 5.04231 37.6913 11.2623 37.6913C17.44 37.6913 22.4709 32.7813 22.6654 26.6508H22.6714V21.3733H28.0434V37.4838H33.7762V15.0095H28.0434V15.0199L22.6713 15.02V21.4129H16.3731V15.0077H22.6712ZM16.318 26.6508V21.3733H11.0145C8.39833 21.5746 6.33818 23.7612 6.33818 26.429C6.33818 29.1485 8.54279 31.3531 11.2623 31.3531C13.9389 31.3531 16.1311 29.2793 16.3199 26.6508H16.318ZM106.84 60.5694C108.221 61.4323 109.786 61.8638 111.537 61.8638C112.523 61.8638 113.46 61.7158 114.347 61.42C115.235 61.1241 116.036 60.705 116.751 60.1626C117.466 59.6201 118.083 58.9914 118.6 58.2764C118.761 58.0545 118.908 57.8279 119.04 57.5965L119.155 61.4939H120.93V34.1266H119.081V46.1643C118.938 45.9044 118.778 45.6517 118.6 45.4064C118.083 44.6914 117.466 44.075 116.751 43.5572C116.036 43.0148 115.235 42.5957 114.347 42.2998C113.46 42.004 112.523 41.856 111.537 41.856C109.835 41.856 108.295 42.2875 106.914 43.1504C105.533 44.0134 104.424 45.1968 103.585 46.7008C102.772 48.2048 102.365 49.9306 102.365 51.8784C102.365 53.8015 102.759 55.515 103.548 57.019C104.362 58.523 105.459 59.7064 106.84 60.5694ZM115.568 58.9791C114.458 59.6694 113.201 60.0146 111.796 60.0146C110.316 60.0146 109.01 59.6571 107.875 58.9421C106.766 58.2271 105.891 57.2532 105.25 56.0205C104.633 54.7877 104.325 53.3947 104.325 51.8414C104.325 50.2635 104.646 48.8704 105.287 47.6623C105.928 46.4296 106.803 45.468 107.912 44.7777C109.047 44.0627 110.341 43.7052 111.796 43.7052C113.226 43.7052 114.495 44.0627 115.605 44.7777C116.739 45.468 117.627 46.4296 118.268 47.6623C118.909 48.8704 119.229 50.2635 119.229 51.8414C119.229 53.444 118.896 54.8617 118.231 56.0944C117.59 57.3025 116.702 58.2641 115.568 58.9791ZM53.5649 69.2973C54.7484 69.7658 56.0798 70 57.5591 70C58.8905 70 60.1109 69.7781 61.2204 69.3343C62.3545 68.9152 63.3284 68.2865 64.142 67.4482C64.9803 66.6346 65.6214 65.6237 66.0652 64.4156C66.5089 63.2321 66.7309 61.8638 66.7309 60.3105V42.2628H64.8817L64.7371 46.1678C64.677 46.0607 64.6143 45.9549 64.5489 45.8502C64.2037 45.2584 63.7722 44.716 63.2545 44.2229C62.7367 43.7298 62.1573 43.3107 61.5163 42.9655C60.8999 42.6203 60.2219 42.3491 59.4822 42.1519C58.7672 41.9546 58.0152 41.856 57.2262 41.856C55.525 41.856 53.9841 42.2875 52.6034 43.1504C51.2227 44.0134 50.1132 45.1968 49.2749 46.7008C48.4613 48.2048 48.0545 49.9306 48.0545 51.8784C48.0545 53.8015 48.449 55.515 49.2379 57.019C50.0516 58.523 51.1487 59.7064 52.5294 60.5694C53.9101 61.4323 55.4757 61.8638 57.2262 61.8638C58.533 61.8638 59.7411 61.6049 60.8506 61.0871C61.9847 60.5694 62.9463 59.8667 63.7352 58.9791C64.198 58.4585 64.5801 57.8998 64.8817 57.3029V60.0886C64.8817 61.8638 64.5858 63.3431 63.9941 64.5265C63.427 65.7346 62.6011 66.6346 61.5163 67.2263C60.4314 67.8427 59.1494 68.1509 57.67 68.1509C56.7824 68.1509 55.9442 68.0522 55.1552 67.855C54.3909 67.6577 53.6882 67.3865 53.0472 67.0414C52.4061 66.7208 51.8391 66.351 51.346 65.9319L50.4954 67.6701C51.3583 68.3111 52.3815 68.8535 53.5649 69.2973ZM61.2574 58.9791C60.1479 59.6694 58.8905 60.0146 57.4851 60.0146C56.0058 60.0146 54.6991 59.6571 53.5649 58.9421C52.4555 58.2271 51.5802 57.2532 50.9392 56.0205C50.3228 54.7877 50.0146 53.3947 50.0146 51.8414C50.0146 50.2635 50.3351 48.8704 50.9761 47.6623C51.6172 46.4296 52.4924 45.468 53.6019 44.7777C54.7361 44.0627 56.0305 43.7052 57.4851 43.7052C58.9151 43.7052 60.1849 44.0627 61.2944 44.7777C62.4285 45.468 63.3161 46.4296 63.9571 47.6623C64.5982 48.8704 64.9187 50.2635 64.9187 51.8414C64.9187 53.444 64.5858 54.8617 63.9201 56.0944C63.2791 57.3025 62.3915 58.2641 61.2574 58.9791ZM74.4294 60.5694C75.81 61.4323 77.3756 61.8638 79.1262 61.8638C80.1124 61.8638 81.0493 61.7158 81.9369 61.42C82.8245 61.1241 83.6258 60.705 84.3408 60.1626C85.0558 59.6201 85.6721 58.9914 86.1899 58.2764C86.3676 58.0311 86.5278 57.7799 86.6707 57.5229V61.4939H88.5198V42.2628H86.7447L86.6045 46.0466C86.4789 45.8279 86.3407 45.6145 86.1899 45.4064C85.6721 44.6914 85.0558 44.075 84.3408 43.5572C83.6258 43.0148 82.8245 42.5957 81.9369 42.2998C81.0493 42.004 80.1124 41.856 79.1262 41.856C77.425 41.856 75.884 42.2875 74.5033 43.1504C73.1226 44.0134 72.0131 45.1968 71.1749 46.7008C70.3612 48.2048 69.9544 49.9306 69.9544 51.8784C69.9544 53.8015 70.3489 55.515 71.1379 57.019C71.9515 58.523 73.0487 59.7064 74.4294 60.5694ZM83.1573 58.9791C82.0478 59.6694 80.7904 60.0146 79.3851 60.0146C77.9057 60.0146 76.599 59.6571 75.4649 58.9421C74.3554 58.2271 73.4801 57.2532 72.8391 56.0205C72.2227 54.7877 71.9145 53.3947 71.9145 51.8414C71.9145 50.2635 72.235 48.8704 72.8761 47.6623C73.5171 46.4296 74.3924 45.468 75.5019 44.7777C76.636 44.0627 77.9304 43.7052 79.3851 43.7052C80.8151 43.7052 82.0848 44.0627 83.1943 44.7777C84.3284 45.468 85.216 46.4296 85.8571 47.6623C86.4981 48.8704 86.8186 50.2635 86.8186 51.8414C86.8186 53.444 86.4858 54.8617 85.8201 56.0944C85.179 57.3025 84.2915 58.2641 83.1573 58.9791ZM92.9895 42.2628H94.7647L94.9235 45.9481C95.1822 45.3577 95.5237 44.795 95.9481 44.2599C96.5152 43.5449 97.2055 42.9655 98.0191 42.5217C98.8574 42.0779 99.819 41.856 100.904 41.856C101.323 41.856 101.705 41.893 102.05 41.967C102.42 42.0163 102.753 42.0779 103.049 42.1519L102.494 44.2969C102.149 44.149 101.816 44.0503 101.496 44.001C101.175 43.9517 100.891 43.9271 100.645 43.9271C99.6587 43.9271 98.7958 44.0997 98.0561 44.4448C97.3411 44.79 96.7371 45.2708 96.244 45.8872C95.7755 46.4789 95.418 47.1569 95.1715 47.9212C94.9496 48.6855 94.8386 49.4868 94.8386 50.3251V61.4939H92.9895V42.2628ZM133.783 61.8638C131.934 61.8638 130.282 61.4446 128.827 60.6063C127.397 59.7681 126.275 58.5969 125.462 57.093C124.648 55.589 124.241 53.8385 124.241 51.8414C124.241 50.3867 124.463 49.0554 124.907 47.8473C125.375 46.6391 126.016 45.5913 126.83 44.7037C127.644 43.7915 128.618 43.0888 129.752 42.5957C130.91 42.1026 132.168 41.856 133.524 41.856C134.855 41.856 136.051 42.0779 137.111 42.5217C138.196 42.9655 139.108 43.6065 139.848 44.4448C140.588 45.2584 141.142 46.2323 141.512 47.3665C141.882 48.476 142.042 49.7087 141.993 51.0648L141.956 52.0633H126.205C126.244 53.6019 126.551 54.9579 127.126 56.1314C127.742 57.3642 128.63 58.3257 129.789 59.0161C130.972 59.6818 132.414 60.0146 134.116 60.0146C135.028 60.0146 135.965 59.8667 136.926 59.5708C137.888 59.275 138.973 58.6339 140.181 57.6477L141.142 59.0161C140.6 59.5338 139.959 60.0146 139.219 60.4584C138.48 60.8776 137.654 61.2227 136.741 61.4939C135.829 61.7405 134.843 61.8638 133.783 61.8638ZM127.126 47.3295C126.678 48.1903 126.392 49.2012 126.27 50.3621H140.144V50.1402C140.144 49.154 139.897 48.1678 139.404 47.1816C138.936 46.1953 138.208 45.3694 137.222 44.7037C136.236 44.038 134.991 43.7052 133.487 43.7052C132.082 43.7052 130.824 44.0134 129.715 44.6297C128.63 45.2461 127.767 46.146 127.126 47.3295ZM147.4 42.2628H145.625V61.4939H146.291H146.549H147.474V49.7334C147.474 48.9198 147.634 48.1554 147.955 47.4404C148.275 46.7008 148.731 46.0474 149.323 45.4803C149.915 44.9133 150.605 44.4695 151.394 44.149C152.183 43.8038 153.058 43.6312 154.02 43.6312C155.129 43.6312 156.054 43.8654 156.794 44.3339C157.533 44.7777 158.088 45.468 158.458 46.4049C158.852 47.3172 159.05 48.4883 159.05 49.9183V61.4939H160.899V49.8443C160.899 48.0198 160.652 46.5159 160.159 45.3324C159.691 44.149 158.976 43.2737 158.014 42.7066C157.077 42.1396 155.931 41.856 154.575 41.856C153.465 41.856 152.405 42.0656 151.394 42.4847C150.408 42.8792 149.557 43.4216 148.842 44.112C148.277 44.6385 147.85 45.2114 147.562 45.8305L147.4 42.2628ZM45.9721 37.9164C43.8841 37.9164 42.0218 37.5779 40.3852 36.9007C38.7769 36.1953 37.479 35.2359 36.4914 34.0226L40.2159 30.8059C41.0906 31.7371 42.0641 32.4143 43.1363 32.8375C44.2085 33.2325 45.2808 33.43 46.353 33.43C46.7762 33.43 47.1572 33.3877 47.4957 33.3031C47.8626 33.1902 48.1729 33.0491 48.4269 32.8798C48.6808 32.6823 48.8642 32.4566 48.9771 32.2026C49.1182 31.9205 49.1887 31.6242 49.1887 31.3138C49.1887 30.6931 48.9348 30.1993 48.4269 29.8325C48.1447 29.6914 47.7074 29.5221 47.1148 29.3246C46.5223 29.0988 45.7604 28.859 44.8293 28.6051C43.3903 28.2382 42.1629 27.815 41.1471 27.3353C40.1595 26.8274 39.3694 26.2631 38.7769 25.6423C38.269 25.0498 37.874 24.4149 37.5918 23.7377C37.3379 23.0323 37.2109 22.2564 37.2109 21.4099C37.2109 20.3941 37.4366 19.4771 37.8881 18.6588C38.3395 17.8123 38.9603 17.0928 39.7504 16.5003C40.5686 15.9077 41.4998 15.4563 42.5438 15.1459C43.5878 14.8073 44.6882 14.638 45.8451 14.638C47.002 14.638 48.1306 14.7791 49.231 15.0612C50.3315 15.3434 51.3473 15.7525 52.2784 16.2886C53.2378 16.7965 54.0701 17.4032 54.7756 18.1086L51.5589 21.6638C51.051 21.1842 50.4726 20.7468 49.8236 20.3518C49.2028 19.9568 48.5539 19.6464 47.8767 19.4206C47.1995 19.1949 46.5928 19.082 46.0567 19.082C45.577 19.082 45.1397 19.1244 44.7447 19.209C44.3778 19.2937 44.0675 19.4206 43.8135 19.5899C43.5596 19.7592 43.3621 19.985 43.221 20.2671C43.1081 20.5211 43.0517 20.8032 43.0517 21.1136C43.0517 21.424 43.1222 21.7203 43.2633 22.0024C43.4326 22.2846 43.6583 22.5244 43.9405 22.722C44.2509 22.8913 44.7023 23.0888 45.2949 23.3145C45.9156 23.5402 46.748 23.7942 47.792 24.0763C49.1464 24.4432 50.2892 24.8523 51.2203 25.3037C52.1797 25.7552 52.9415 26.2772 53.5058 26.8698C53.9855 27.3776 54.3382 27.9561 54.5639 28.6051C54.7897 29.254 54.9025 29.9736 54.9025 30.7636C54.9025 32.1462 54.5075 33.3877 53.7174 34.4882C52.9556 35.5604 51.8975 36.4069 50.5431 37.0276C49.1887 37.6202 47.665 37.9164 45.9721 37.9164ZM61.4573 36.3928C63.1503 37.4086 65.069 37.9164 67.2134 37.9164C69.1039 37.9164 70.8957 37.5496 72.5887 36.816C74.2816 36.0542 75.6078 35.0666 76.5672 33.8533L73.3082 29.8748C72.8285 30.4673 72.2924 30.9752 71.6998 31.3985C71.1355 31.8217 70.5289 32.1462 69.8799 32.3719C69.2309 32.5695 68.5396 32.6682 67.806 32.6682C66.6773 32.6682 65.6615 32.386 64.7586 31.8217C63.8557 31.2292 63.1362 30.4673 62.6001 29.5362C62.0922 28.5768 61.8382 27.4905 61.8382 26.2772C61.8382 25.0357 62.0922 23.9353 62.6001 22.9759C63.108 22.0165 63.7993 21.2688 64.674 20.7327C65.5769 20.1684 66.6068 19.8862 67.7637 19.8862C68.4973 19.8862 69.2027 20.0132 69.8799 20.2671C70.5853 20.5211 71.2343 20.8738 71.8268 21.3252C72.4194 21.7485 72.9131 22.2282 73.3082 22.7643L76.6095 18.7858C75.6783 17.4878 74.3804 16.472 72.7156 15.7384C71.0509 15.0048 69.2168 14.638 67.2134 14.638C65.069 14.638 63.1503 15.1459 61.4573 16.1617C59.7643 17.1774 58.4241 18.5742 57.4365 20.3518C56.4771 22.1012 55.9975 24.0763 55.9975 26.2772C55.9975 28.5063 56.4771 30.4956 57.4365 32.245C58.4241 33.9944 59.7643 35.377 61.4573 36.3928ZM88.7778 37.9164C86.4923 37.9164 84.4466 37.4227 82.6407 36.4351C80.8631 35.4193 79.4523 34.0367 78.4083 32.2873C77.3925 30.5379 76.8846 28.5345 76.8846 26.2772C76.8846 24.0199 77.3925 22.0307 78.4083 20.3095C79.4523 18.56 80.8631 17.1774 82.6407 16.1617C84.4466 15.1459 86.4923 14.638 88.7778 14.638C91.0351 14.638 93.0525 15.1459 94.8302 16.1617C96.636 17.1774 98.0468 18.56 99.0626 20.3095C100.078 22.0307 100.586 24.0199 100.586 26.2772C100.586 28.5345 100.078 30.5379 99.0626 32.2873C98.0468 34.0367 96.636 35.4193 94.8302 36.4351C93.0525 37.4227 91.0351 37.9164 88.7778 37.9164ZM88.7778 32.6682C89.8782 32.6682 90.8658 32.4002 91.7405 31.864C92.6152 31.2997 93.2924 30.5379 93.7721 29.5785C94.28 28.591 94.5339 27.4905 94.5339 26.2772C94.5339 25.0357 94.28 23.9353 93.7721 22.9759C93.2924 21.9883 92.6152 21.2265 91.7405 20.6904C90.8658 20.1261 89.8782 19.8439 88.7778 19.8439C87.6491 19.8439 86.6474 20.1261 85.7727 20.6904C84.898 21.2547 84.2067 22.0165 83.6988 22.9759C83.1909 23.9353 82.9511 25.0357 82.9793 26.2772C82.9511 27.4905 83.1909 28.591 83.6988 29.5785C84.2067 30.5379 84.898 31.2997 85.7727 31.864C86.6474 32.4002 87.6491 32.6682 88.7778 32.6682ZM99.7189 15.1035L109.115 37.4932H113.728L123.59 15.1035H117.157L111.649 30.0271L106.322 15.1035H99.7189ZM134.465 37.9164C132.038 37.9164 129.922 37.4227 128.116 36.4351C126.31 35.4475 124.899 34.0931 123.884 32.3719C122.868 30.6507 122.36 28.6756 122.36 26.4465C122.36 24.7253 122.642 23.1452 123.206 21.7062C123.771 20.2671 124.561 19.0256 125.577 17.9816C126.592 16.9094 127.792 16.0911 129.174 15.5268C130.585 14.9342 132.109 14.638 133.745 14.638C135.269 14.638 136.68 14.9201 137.978 15.4845C139.276 16.0206 140.39 16.7965 141.321 17.8123C142.281 18.7999 143.014 19.9709 143.522 21.3252C144.03 22.6796 144.256 24.161 144.199 25.7693L144.157 27.6316H128.189C128.327 28.3116 128.557 28.9324 128.878 29.4939C129.47 30.4814 130.289 31.2574 131.333 31.8217C132.405 32.3578 133.661 32.6259 135.1 32.6259C136.087 32.6259 136.99 32.4707 137.808 32.1603C138.627 31.8499 139.501 31.3138 140.432 30.552L143.311 34.5728C142.492 35.3064 141.589 35.9272 140.602 36.4351C139.614 36.9148 138.598 37.2816 137.554 37.5355C136.51 37.7895 135.48 37.9164 134.465 37.9164ZM128.709 22.595C128.508 23.0076 128.353 23.4591 128.241 23.9494H138.528V23.7801C138.471 23.0182 138.217 22.3269 137.766 21.7062C137.343 21.0854 136.793 20.6057 136.115 20.2671C135.438 19.9285 134.676 19.7592 133.83 19.7592C132.588 19.7592 131.53 19.9991 130.655 20.4788C129.809 20.9584 129.16 21.6638 128.709 22.595ZM146.718 15.1035V37.4932H152.77V25.8963C152.77 25.1909 152.883 24.5419 153.109 23.9494C153.363 23.3568 153.701 22.8489 154.124 22.4257C154.548 21.9742 155.041 21.6356 155.606 21.4099C156.198 21.1559 156.833 21.029 157.51 21.029C158.018 21.029 158.512 21.0995 158.992 21.2406C159.471 21.3535 159.88 21.4945 160.219 21.6638L160.277 21.4247L167.525 37.4078L163.337 47.2278H169.431L173.283 37.4932L182.679 15.1035H175.822L171.124 28.3088C170.912 28.9721 170.7 29.598 170.487 30.1865C170.435 30.0271 170.379 29.8668 170.32 29.7055C170.123 29.0565 169.911 28.4922 169.685 28.0125L164.225 15.1035H161.817L161.827 15.0612C161.517 14.9484 161.136 14.8496 160.685 14.765C160.233 14.6803 159.768 14.638 159.288 14.638C158.159 14.638 157.073 14.906 156.029 15.4421C155.013 15.9783 154.124 16.726 153.363 17.6853C153.089 18.0202 152.842 18.3696 152.623 18.7336L152.516 15.1035H146.718ZM30.7822 4.32284C29.022 4.32284 27.595 5.74978 27.595 7.51001C27.595 9.27023 29.022 10.6972 30.7822 10.6972H31.0375C32.7977 10.6972 34.2247 9.27023 34.2247 7.51001C34.2247 5.74978 32.7977 4.32284 31.0375 4.32284H30.7822Z" fill="#1F3240"/>
</svg>
